# xmcd CD database file
#
# Track frame offsets:
#	150
#	9242
#	20224
#	43692
#	59268
#	71490
#	90159
#	106326
#	119105
#	141944
#	156573
#	177247
#	189566
#	207235
#	236761
#	252926
#	282528
#	306461
#	328400
#	341537
#
# Disc length: 4702 seconds
#
# Revision: 0
# Processed by: cddbd v1.5.2PL0 Copyright (c) Steve Scherf et al.
# Submitted via: CDex 2.09
#
DISCID=35125c14
DTITLE=Dave Brubeck - 60 Essential Recordings [CD2)
DYEAR=2018
DGENRE=Jazz
TTITLE0=Unsquare Dance
TTITLE1=Bossa Nova U.S.A.
TTITLE2=Take The 'A' Train (Live)
TTITLE3=September Song
TTITLE4=What Is This Thing Called Love
TTITLE5=This Can't Be Love
TTITLE6=Alice In Wonderland
TTITLE7=Love Is Here To Stay
TTITLE8=Over The Rainbow (Live)
TTITLE9=Just One Of Those Things
TTITLE10=Le Souk (Live)
TTITLE11=Laura
TTITLE12=Sweet Cleo Brown
TTITLE13=Stardust (Live)
TTITLE14=Audry
TTITLE15=These Foolish Things (Live)
TTITLE16=Brother, Can You Spare A Dime
TTITLE17=When You Wish Upon A Star
TTITLE18=At A Perfume Couter
TTITLE19=You'd Be So Nice To Come Home To
EXTD=YEAR: 2018
EXTT0=
EXTT1=
EXTT2=
EXTT3=
EXTT4=
EXTT5=
EXTT6=
EXTT7=
EXTT8=
EXTT9=
EXTT10=
EXTT11=
EXTT12=
EXTT13=
EXTT14=
EXTT15=
EXTT16=
EXTT17=
EXTT18=
EXTT19=
PLAYORDER=
